<svg width="10" height="10" viewBox="0 0 10 10" fill="none" xmlns="http://www.w3.org/2000/svg">
    <circle cx="5" cy="5" r="5" fill="white"/>
    <g clip-path="url(#clip0_103_6)">
        <path d="M7.57502 3.75781H3.07502C3.01535 3.75781 2.95812 3.73723 2.91593 3.70061C2.87373 3.66398 2.85002 3.6143 2.85002 3.5625C2.85002 3.5107 2.87373 3.46102 2.91593 3.42439C2.95812 3.38777 3.01535 3.36719 3.07502 3.36719H6.90002C6.9597 3.36719 7.01693 3.34661 7.05912 3.30998C7.10132 3.27335 7.12502 3.22368 7.12502 3.17188C7.12502 3.12007 7.10132 3.0704 7.05912 3.03377C7.01693 2.99714 6.9597 2.97656 6.90002 2.97656H3.07502C2.89606 2.97674 2.72449 3.03853 2.59795 3.14837C2.47141 3.25822 2.40023 3.40715 2.40002 3.5625V6.6875C2.40023 6.84285 2.47141 6.99178 2.59795 7.10163C2.72449 7.21147 2.89606 7.27326 3.07502 7.27344H7.57502C7.69433 7.27332 7.80871 7.23213 7.89307 7.1589C7.97744 7.08567 8.02489 6.98638 8.02502 6.88281V4.14844C8.02489 4.04487 7.97744 3.94558 7.89307 3.87235C7.80871 3.79912 7.69433 3.75793 7.57502 3.75781ZM6.56252 5.80859C6.49577 5.80859 6.43052 5.79141 6.37502 5.75922C6.31952 5.72703 6.27626 5.68127 6.25072 5.62774C6.22517 5.57421 6.21849 5.5153 6.23151 5.45847C6.24453 5.40164 6.27668 5.34944 6.32388 5.30847C6.37108 5.26749 6.43121 5.23959 6.49668 5.22829C6.56215 5.21698 6.63001 5.22278 6.69168 5.24496C6.75335 5.26713 6.80606 5.30468 6.84314 5.35286C6.88023 5.40104 6.90002 5.45768 6.90002 5.51562C6.90002 5.59333 6.86447 5.66784 6.80117 5.72278C6.73788 5.77773 6.65203 5.80859 6.56252 5.80859Z" fill="#6066D0"/>
    </g>
    <defs>
        <clipPath id="clip0_103_6">
            <rect width="6" height="5" fill="white" transform="translate(1.5 2)"/>
        </clipPath>
    </defs>
</svg>
