<svg width="26" height="10" viewBox="0 0 26 10" fill="none" xmlns="http://www.w3.org/2000/svg">
    <circle cx="5" cy="5" r="5" fill="white"/>
    <path d="M4.99996 1.66666C3.19296 1.66666 1.66663 3.19299 1.66663 4.99999C1.66663 6.80699 3.19296 8.33332 4.99996 8.33332C6.80696 8.33332 8.33329 6.80699 8.33329 4.99999C8.33329 3.19299 6.80696 1.66666 4.99996 1.66666ZM4.99996 3.33332C5.57563 3.33332 5.99996 3.75732 5.99996 4.33332C5.99996 4.90932 5.57563 5.33332 4.99996 5.33332C4.42463 5.33332 3.99996 4.90932 3.99996 4.33332C3.99996 3.75732 4.42463 3.33332 4.99996 3.33332ZM3.29796 6.59066C3.59696 6.15066 4.09563 5.85732 4.66663 5.85732H5.33329C5.90463 5.85732 6.40296 6.15066 6.70196 6.59066C6.27596 7.04666 5.67163 7.33332 4.99996 7.33332C4.32829 7.33332 3.72396 7.04666 3.29796 6.59066Z" fill="#6C63FF"/>
    <path d="M15.352 3.924V6H15.079V4.452L14.389 6H14.197L13.504 4.449V6H13.231V3.924H13.525L14.293 5.64L15.061 3.924H15.352ZM17.231 4.356L16.241 6.774H15.959L16.283 5.982L15.62 4.356H15.923L16.439 5.688L16.949 4.356H17.231ZM18.6454 4.785V5.016H17.4484V4.785H18.6454ZM20.4448 3.909V4.131H19.8748V6H19.6018V4.131H19.0288V3.909H20.4448ZM22.2808 5.115C22.2808 5.167 22.2778 5.222 22.2718 5.28H20.9578C20.9678 5.442 21.0228 5.569 21.1228 5.661C21.2248 5.751 21.3478 5.796 21.4918 5.796C21.6098 5.796 21.7078 5.769 21.7858 5.715C21.8658 5.659 21.9218 5.585 21.9538 5.493H22.2478C22.2038 5.651 22.1158 5.78 21.9838 5.88C21.8518 5.978 21.6878 6.027 21.4918 6.027C21.3358 6.027 21.1958 5.992 21.0718 5.922C20.9498 5.852 20.8538 5.753 20.7838 5.625C20.7138 5.495 20.6788 5.345 20.6788 5.175C20.6788 5.005 20.7128 4.856 20.7808 4.728C20.8488 4.6 20.9438 4.502 21.0658 4.434C21.1898 4.364 21.3318 4.329 21.4918 4.329C21.6478 4.329 21.7858 4.363 21.9058 4.431C22.0258 4.499 22.1178 4.593 22.1818 4.713C22.2478 4.831 22.2808 4.965 22.2808 5.115ZM21.9988 5.058C21.9988 4.954 21.9758 4.865 21.9298 4.791C21.8838 4.715 21.8208 4.658 21.7408 4.62C21.6628 4.58 21.5758 4.56 21.4798 4.56C21.3418 4.56 21.2238 4.604 21.1258 4.692C21.0298 4.78 20.9748 4.902 20.9608 5.058H21.9988ZM23.2232 6.027C23.0972 6.027 22.9842 6.006 22.8842 5.964C22.7842 5.92 22.7052 5.86 22.6472 5.784C22.5892 5.706 22.5572 5.617 22.5512 5.517H22.8332C22.8412 5.599 22.8792 5.666 22.9472 5.718C23.0172 5.77 23.1082 5.796 23.2202 5.796C23.3242 5.796 23.4062 5.773 23.4662 5.727C23.5262 5.681 23.5562 5.623 23.5562 5.553C23.5562 5.481 23.5242 5.428 23.4602 5.394C23.3962 5.358 23.2972 5.323 23.1632 5.289C23.0412 5.257 22.9412 5.225 22.8632 5.193C22.7872 5.159 22.7212 5.11 22.6652 5.046C22.6112 4.98 22.5842 4.894 22.5842 4.788C22.5842 4.704 22.6092 4.627 22.6592 4.557C22.7092 4.487 22.7802 4.432 22.8722 4.392C22.9642 4.35 23.0692 4.329 23.1872 4.329C23.3692 4.329 23.5162 4.375 23.6282 4.467C23.7402 4.559 23.8002 4.685 23.8082 4.845H23.5352C23.5292 4.759 23.4942 4.69 23.4302 4.638C23.3682 4.586 23.2842 4.56 23.1782 4.56C23.0802 4.56 23.0022 4.581 22.9442 4.623C22.8862 4.665 22.8572 4.72 22.8572 4.788C22.8572 4.842 22.8742 4.887 22.9082 4.923C22.9442 4.957 22.9882 4.985 23.0402 5.007C23.0942 5.027 23.1682 5.05 23.2622 5.076C23.3802 5.108 23.4762 5.14 23.5502 5.172C23.6242 5.202 23.6872 5.248 23.7392 5.31C23.7932 5.372 23.8212 5.453 23.8232 5.553C23.8232 5.643 23.7982 5.724 23.7482 5.796C23.6982 5.868 23.6272 5.925 23.5352 5.967C23.4452 6.007 23.3412 6.027 23.2232 6.027ZM24.5415 4.581V5.55C24.5415 5.63 24.5585 5.687 24.5925 5.721C24.6265 5.753 24.6855 5.769 24.7695 5.769H24.9705V6H24.7245C24.5725 6 24.4585 5.965 24.3825 5.895C24.3065 5.825 24.2685 5.71 24.2685 5.55V4.581H24.0555V4.356H24.2685V3.942H24.5415V4.356H24.9705V4.581H24.5415Z" fill="white"/>
</svg>
